<svg width="188" height="38" viewBox="0 0 188 38" fill="none" xmlns="http://www.w3.org/2000/svg">
<g clip-path="url(#clip0_0_6464)">
<path d="M36.4592 29.0709H37.349L38.8777 34.6659H38.9005L40.566 29.0709H41.4558L43.0985 34.6659H43.1214L44.6728 29.0709H45.517L43.532 35.8077H42.6651L40.9995 30.0986H40.9767L39.3112 35.8077H38.4442L36.4592 29.0709Z" fill="#8E8E8E"/>
<path d="M49.7607 29.0709C50.0573 29.0709 50.3083 29.3221 50.3083 29.619C50.3083 29.9159 50.0573 30.1671 49.7607 30.1671C49.4641 30.1671 49.2131 29.9159 49.2131 29.619C49.2131 29.2993 49.4641 29.0709 49.7607 29.0709ZM49.3957 31.3546H50.1486V35.8077H49.3957V31.3546Z" fill="#8E8E8E"/>
<path d="M54.8942 32.4051C54.8942 31.994 54.8485 31.6515 54.8485 31.3546H55.5558C55.5558 31.583 55.5786 31.8342 55.5786 32.0854H55.6015C55.8981 31.5373 56.4684 31.2176 57.0845 31.2404C58.2481 31.2404 58.7728 31.994 58.7728 33.0673V35.8305H58.0199V33.1587C58.0199 32.4051 57.7005 31.9483 56.9932 31.9483C56.035 31.9483 55.6243 32.6334 55.6243 33.6611V35.8305H54.8942V32.4051Z" fill="#8E8E8E"/>
<path d="M67.4656 35.0084C67.0092 35.625 66.2563 35.9904 65.4806 35.9447C64.0889 35.9447 63.2219 34.8942 63.2219 33.5925C63.2219 32.2223 64.2029 31.2404 65.5034 31.2404C66.7583 31.2404 67.6253 32.1081 67.6253 33.5697V33.798H64.0204C64.0432 34.5973 64.6821 35.2139 65.4806 35.2368C66.0282 35.2596 66.5757 35.0084 66.8952 34.5517L67.4656 35.0084ZM66.8267 33.1815C66.8039 32.4279 66.302 31.9255 65.4806 31.9255C64.7277 31.8798 64.0889 32.4279 64.0204 33.1815H66.8267Z" fill="#8E8E8E"/>
<path d="M71.9374 34.643C72.1883 35.0084 72.6218 35.2368 73.0782 35.2368C73.5345 35.2368 74.0592 35.0312 74.0592 34.5517C74.0592 34.0721 73.5801 33.9579 73.101 33.8437C72.2568 33.661 71.5267 33.4783 71.5267 32.542C71.5267 31.6743 72.3709 31.2175 73.1922 31.2175C73.8311 31.2175 74.4015 31.4459 74.6981 32.0396L74.082 32.4507C73.8995 32.1082 73.5345 31.9026 73.1466 31.9255C72.7359 31.9255 72.2796 32.131 72.2796 32.542C72.2796 32.9074 72.8044 33.0673 73.3976 33.1815C74.1961 33.3413 74.8578 33.6154 74.8578 34.506C74.8578 35.5108 73.968 35.899 73.0782 35.899C72.3252 35.899 71.7777 35.6935 71.3442 35.0769L71.9374 34.643Z" fill="#8E8E8E"/>
<path d="M89.8248 34.8486C89.2772 35.5337 88.7068 35.9448 87.817 35.9448C86.6762 35.9448 85.6723 35.2368 85.6723 34.0265C85.6723 33.0674 86.3568 32.4508 87.1553 32.0626C86.7218 31.6058 86.3568 31.1491 86.3568 30.5097C86.3568 29.5049 87.1553 28.9568 88.0908 28.9568C89.0262 28.9568 89.7791 29.4592 89.7791 30.464C89.7791 31.3089 89.0262 31.8342 88.3418 32.1767L89.7791 33.6839L90.6917 32.1767H91.6044L90.3039 34.2549L91.8553 35.8306H90.7602L89.8248 34.8486ZM87.6573 32.5421C87.0869 32.8618 86.4709 33.2501 86.4709 33.9808C86.4937 34.6888 87.0641 35.2597 87.7714 35.2368C88.4558 35.2368 88.9121 34.8029 89.3228 34.3005L87.6573 32.5421ZM87.8626 31.6743C88.3646 31.4003 88.9806 31.1034 88.9806 30.4183C88.9806 29.9844 88.6155 29.619 88.182 29.619C88.1592 29.619 88.1364 29.619 88.1136 29.619C87.6117 29.5962 87.1782 29.9616 87.1553 30.464C87.1553 30.4868 87.1553 30.5097 87.1553 30.5325C87.1782 30.8751 87.3607 31.1948 87.6117 31.4231L87.8626 31.6743Z" fill="#8E8E8E"/>
<path d="M105.453 30.2584C105.18 29.8474 104.723 29.619 104.221 29.6419C103.514 29.6419 102.784 29.9844 102.784 30.7837C102.784 31.4003 103.126 31.6743 104.199 32.0169C105.271 32.3594 106.206 32.702 106.206 34.0265C106.206 35.351 105.066 35.9904 103.834 35.9904C103.058 35.9904 102.214 35.7392 101.757 35.0541L102.442 34.4832C102.761 34.9628 103.309 35.2596 103.879 35.2368C104.564 35.2368 105.339 34.8258 105.339 34.0721C105.339 33.25 104.769 33.113 103.583 32.702C102.624 32.3822 101.917 31.9712 101.917 30.8522C101.917 29.5505 103.035 28.9111 104.199 28.9111C104.906 28.8654 105.613 29.1623 106.092 29.7104L105.453 30.2584Z" fill="#8E8E8E"/>
<path d="M110.678 31.3545H111.431V31.9939H111.454C111.842 31.5144 112.435 31.2403 113.051 31.2403C114.283 31.1947 115.333 32.1538 115.401 33.387C115.401 33.4555 115.401 33.524 115.401 33.6153C115.401 34.9398 114.42 35.9675 113.165 35.9675C112.481 35.9903 111.819 35.6478 111.454 35.054H111.431V38.0228H110.678V31.3545ZM113.005 35.2367C113.964 35.2367 114.58 34.506 114.58 33.5925C114.58 32.679 113.964 31.9254 113.005 31.9254C112.047 31.9254 111.431 32.6562 111.431 33.5925C111.431 34.5288 112.047 35.2367 113.005 35.2367Z" fill="#8E8E8E"/>
<path d="M120.261 29.0709C120.557 29.0709 120.808 29.3221 120.808 29.619C120.808 29.9159 120.557 30.1671 120.261 30.1671C119.964 30.1671 119.713 29.9159 119.713 29.619C119.713 29.2993 119.964 29.0709 120.261 29.0709ZM119.896 31.3546H120.649V35.8077H119.896V31.3546Z" fill="#8E8E8E"/>
<path d="M125.622 32.4051C125.622 31.994 125.577 31.6515 125.577 31.3546H126.284C126.284 31.583 126.307 31.8342 126.307 32.0854H126.33C126.626 31.5373 127.197 31.2176 127.813 31.2404C127.927 31.2404 128.018 31.2632 128.109 31.2861L128.064 32.0397C127.927 31.994 127.79 31.9712 127.653 31.994C126.74 31.994 126.352 32.6334 126.352 33.6611V35.8305H125.622V32.4051Z" fill="#8E8E8E"/>
<path d="M132.695 29.0709C132.992 29.0709 133.243 29.3221 133.243 29.619C133.243 29.9159 132.992 30.1671 132.695 30.1671C132.398 30.1671 132.147 29.9159 132.147 29.619C132.147 29.3221 132.398 29.0709 132.695 29.0709ZM132.33 31.3546H133.083V35.8077H132.33V31.3546Z" fill="#8E8E8E"/>
<path d="M140.498 31.994H139.175V34.2319C139.175 34.8029 139.175 35.2596 139.836 35.2596C140.064 35.2596 140.293 35.2139 140.498 35.0997L140.521 35.7848C140.247 35.899 139.95 35.9447 139.654 35.9447C138.604 35.9447 138.422 35.3738 138.422 34.4375V31.9711H137.441V31.3317H138.422V30.0529H139.152V31.3317H140.475V31.994H140.498Z" fill="#8E8E8E"/>
<path d="M144.81 34.643C145.061 35.0084 145.495 35.2368 145.951 35.2368C146.407 35.2368 146.932 35.0312 146.932 34.5517C146.932 34.0721 146.453 33.9579 145.974 33.8437C145.13 33.661 144.4 33.4783 144.4 32.542C144.4 31.6743 145.244 31.2175 146.065 31.2175C146.704 31.2175 147.274 31.4459 147.571 32.0396L146.955 32.4507C146.772 32.1082 146.407 31.9026 146.019 31.9255C145.609 31.9255 145.152 32.131 145.152 32.542C145.152 32.9074 145.677 33.0673 146.27 33.1815C147.069 33.3413 147.731 33.6154 147.731 34.506C147.731 35.5108 146.841 35.899 145.951 35.899C145.198 35.899 144.65 35.6935 144.217 35.0769L144.81 34.643Z" fill="#8E8E8E"/>
<path d="M12.8908 9.79682L4.40341 9.86533V1.62134H0.981079V20.256H4.40341V13.2908L12.8908 13.2223V20.256H16.3131V1.62134H12.8908V9.79682Z" fill="#6D6D6D"/>
<path d="M30.9835 1.62134L22.884 20.2559H26.6257L29.7743 13.0168L35.3184 12.9939L38.4898 20.2788H42.2087L34.132 1.62134H30.9835ZM30.8466 10.2992L32.5578 6.5997L34.1548 10.2992H30.8466Z" fill="#6D6D6D"/>
<path d="M51.9054 1.62134H48.7112V20.256H59.7995V16.899H51.9054V1.62134Z" fill="#6D6D6D"/>
<path d="M66.8495 20.256H79.1699V16.9218H70.0437V13.268H76.7515V10.0709H70.0437V4.81845H79.1699V1.62134H66.8495V20.256Z" fill="#6D6D6D"/>
<path d="M103.856 14.524L99.7495 2.58047H96.7379L92.517 14.5925L88.8209 1.62134H85.4898L90.8286 20.256H93.9087L98.2209 7.9699L102.465 20.256H105.567L110.815 1.62134H107.507L103.856 14.524Z" fill="#6D6D6D"/>
<path d="M152.841 1.05054C147.502 1.05054 143.167 5.38948 143.167 10.7332C143.167 16.077 147.502 20.4159 152.841 20.4159C158.18 20.4159 162.515 16.077 162.515 10.7332C162.515 5.38948 158.18 1.05054 152.841 1.05054ZM152.841 17.2188C149.259 17.2188 146.362 14.3186 146.362 10.7332C146.362 7.14789 149.259 4.24765 152.841 4.24765C156.423 4.24765 159.321 7.14789 159.321 10.7332C159.321 14.3186 156.423 17.2188 152.841 17.2188Z" fill="#6D6D6D"/>
<path d="M126.421 1.05054C121.082 1.05054 116.747 5.38948 116.747 10.7332C116.747 16.077 121.082 20.4159 126.421 20.4159C131.76 20.4159 136.095 16.077 136.095 10.7332C136.095 5.38948 131.76 1.05054 126.421 1.05054ZM126.421 17.2188C122.839 17.2188 119.941 14.3186 119.941 10.7332C119.941 7.14789 122.839 4.24765 126.421 4.24765C130.003 4.24765 132.9 7.14789 132.9 10.7332C132.9 14.3186 130.003 17.2188 126.421 17.2188Z" fill="#6D6D6D"/>
<path d="M177.368 1.30164H170.386V20.1874H177.368C182.57 20.0961 186.745 15.8028 186.654 10.5961C186.585 5.48072 182.456 1.37015 177.368 1.30164ZM177.368 16.9447H173.626V4.52159H177.368C180.79 4.45308 183.619 7.19346 183.688 10.6189C183.756 14.0444 181.018 16.8762 177.596 16.9447C177.528 16.9447 177.459 16.9447 177.368 16.9447Z" fill="#6D6D6D"/>
</g>
<defs>
<clipPath id="clip0_0_6464">
<rect width="188" height="38" fill="white"/>
</clipPath>
</defs>
</svg>
